HIERARCHY
ROOT Hips
{
	OFFSET 50.155499 16.421686 85.579002
	CHANNELS 6 Xposition Yposition Zposition Xrotation Yrotation Zrotation
	JOINT spine
	{
		OFFSET 0.000000 -0.367607 6.392601
		CHANNELS 3 Xrotation Yrotation Zrotation
		JOINT spine1
		{
			OFFSET 0.000000 -0.000002 9.176109
			CHANNELS 3 Xrotation Yrotation Zrotation
			JOINT spine2
			{
				OFFSET 0.000000 0.000000 8.792381
				CHANNELS 3 Xrotation Yrotation Zrotation
				JOINT Neck
				{
					OFFSET 0.000000 -1.076244 22.573700
					CHANNELS 3 Xrotation Yrotation Zrotation
					JOINT Head
					{
						OFFSET 0.000000 -0.000001 6.820114
						CHANNELS 3 Xrotation Yrotation Zrotation
						End Site
						{
							OFFSET 0.000000 5.444268 16.508499
						}
					}
				}
				JOINT RightShoulder
				{
					OFFSET -3.702209 0.515507 9.495087
					CHANNELS 3 Xrotation Yrotation Zrotation
					JOINT RightArm
					{
						OFFSET 0.000000 -0.000002 12.453705
						CHANNELS 3 Xrotation Yrotation Zrotation
						JOINT RightArmRoll
						{
							OFFSET 0.000000 -0.000002 6.286865
							CHANNELS 3 Xrotation Yrotation Zrotation
							JOINT RightForeArm
							{
								OFFSET 0.000000 -0.000002 18.311401
								CHANNELS 3 Xrotation Yrotation Zrotation
								JOINT RightForeArmRoll
								{
									OFFSET 0.000000 -0.000002 7.054825
									CHANNELS 3 Xrotation Yrotation Zrotation
									JOINT RightHand
									{
										OFFSET 0.000000 -0.000002 14.157501
										CHANNELS 3 Xrotation Yrotation Zrotation
										End Site
										{
											OFFSET 0.000000 0.000000 0.100006
										}
									}
								}
							}
						}
					}
				}
				JOINT LeftShoulder
				{
					OFFSET 3.702209 0.515507 9.495087
					CHANNELS 3 Xrotation Yrotation Zrotation
					JOINT LeftArm
					{
						OFFSET 0.000000 -0.000002 12.453705
						CHANNELS 3 Xrotation Yrotation Zrotation
						JOINT LeftArmRoll
						{
							OFFSET 0.000000 -0.000002 6.286865
							CHANNELS 3 Xrotation Yrotation Zrotation
							JOINT LeftForeArm
							{
								OFFSET 0.000000 -0.000002 18.311401
								CHANNELS 3 Xrotation Yrotation Zrotation
								JOINT LeftForeArmRoll
								{
									OFFSET 0.000000 -0.000002 7.054825
									CHANNELS 3 Xrotation Yrotation Zrotation
									JOINT LeftHand
									{
										OFFSET 0.000000 -0.000002 14.157501
										CHANNELS 3 Xrotation Yrotation Zrotation
										End Site
										{
											OFFSET 0.000000 0.000000 0.100006
										}
									}
								}
							}
						}
					}
				}
			}
		}
	}
	JOINT RightUpLeg
	{
		OFFSET -5.666161 0.871611 -1.039032
		CHANNELS 3 Xrotation Yrotation Zrotation
		JOINT RightUpLegRoll
		{
			OFFSET 0.000000 -0.000004 16.600502
			CHANNELS 3 Xrotation Yrotation Zrotation
			JOINT RightLeg
			{
				OFFSET 0.000000 0.000004 -20.557198
				CHANNELS 3 Xrotation Yrotation Zrotation
				JOINT RightLegRoll
				{
					OFFSET 0.000000 -0.000004 20.624397
					CHANNELS 3 Xrotation Yrotation Zrotation
					JOINT RightFoot
					{
						OFFSET 0.000000 -0.000002 17.166397
						CHANNELS 3 Xrotation Yrotation Zrotation
						JOINT RightToeBase
						{
							OFFSET 0.000000 -0.000002 14.350204
							CHANNELS 3 Xrotation Yrotation Zrotation
							End Site
							{
								OFFSET 0.006081 0.801060 6.949707
							}
						}
					}
				}
			}
		}
	}
	JOINT LeftUpLeg
	{
		OFFSET 5.666161 0.871611 -1.039032
		CHANNELS 3 Xrotation Yrotation Zrotation
		JOINT LeftUpLegRoll
		{
			OFFSET 0.000000 -0.000004 16.600601
			CHANNELS 3 Xrotation Yrotation Zrotation
			JOINT LeftLeg
			{
				OFFSET 0.000000 -0.000002 20.557098
				CHANNELS 3 Xrotation Yrotation Zrotation
				JOINT LeftLegRoll
				{
					OFFSET 0.000000 -0.000004 20.815102
					CHANNELS 3 Xrotation Yrotation Zrotation
					JOINT LeftFoot
					{
						OFFSET 0.000000 -0.000004 16.975693
						CHANNELS 3 Xrotation Yrotation Zrotation
						JOINT LeftToeBase
						{
							OFFSET 0.000000 -0.000002 14.350204
							CHANNELS 3 Xrotation Yrotation Zrotation
							End Site
							{
								OFFSET -0.027260 0.801062 6.949707
							}
						}
					}
				}
			}
		}
	}
}
MOTION
Frames: 4
Frame Time: 0.041667
53.607498 -10.524214 85.616501 -1.123889 1.566219 1.469083 -1.478864 0.397781 -0.154603 1.046164 0.809186 -0.303903 2.691306 0.805490 -0.313576 8.216111 -9.004602 -1.047559 4.061075 4.957244 -0.406470 -12.696902 -63.617263 -15.171976 -45.850192 -116.726430 -43.468236 -0.000001 0.000002 -0.000003 6.105959 -16.201260 0.727530 0.000003 -0.000002 -3.013109 -5.000200 -7.998854 0.000157 0.363701 49.076736 -1.771335 -31.303580 121.514912 31.554347 -0.000004 -0.000006 0.000003 4.993257 10.988766 0.033908 0.000000 -0.000008 2.999999 -5.000221 7.998715 -0.000164 -0.693110 -179.208072 -1.106090 -179.999991 0.000005 -1.006997 172.920855 -2.985108 -0.634534 0.000002 -0.000001 0.080612 69.376342 6.835848 2.241470 25.456889 -7.349491 -0.000012 0.184829 176.224031 0.916225 -0.000005 0.000011 -1.052780 -9.017572 1.409014 0.623259 -0.000001 0.000003 -0.193875 71.973467 -6.770964 -2.238243 25.695088 7.349400 -0.353886 
53.607899 -10.502813 85.607208 -1.079788 1.557014 1.460993 -1.481233 0.397813 -0.155960 1.041434 0.808478 -0.307867 2.686565 0.804736 -0.317532 8.239656 -8.970886 -1.026109 4.038671 4.954876 -0.390308 -12.575757 -63.617208 -15.031954 -45.849861 -116.717291 -43.484509 0.000003 0.000003 -0.000002 6.153508 -16.204965 0.734591 -0.000000 -0.000003 -3.013109 -5.000201 -7.998855 0.000157 0.346418 49.070688 -1.750761 -31.247368 121.512713 31.503506 -0.000004 -0.000005 0.000003 5.082337 10.984707 0.027055 -0.000003 -0.000008 3.000000 -5.000220 7.998715 -0.000163 -0.771682 -179.196064 -1.106878 -179.999991 0.000005 -1.006000 172.881022 -2.983859 -0.636485 0.000002 -0.000001 0.081025 69.377817 6.835848 2.241780 25.456882 -7.349491 -0.000012 0.109766 176.244002 0.940164 -0.000005 0.000011 -1.052110 -9.056208 1.401724 0.623843 -0.000002 0.000003 -0.194109 71.976588 -6.771030 -2.238363 25.696396 7.349391 -0.356128 
53.605701 -10.478416 85.607201 -1.036147 1.547827 1.452830 -1.483765 0.397836 -0.157369 1.036403 0.807725 -0.312023 2.681534 0.803932 -0.321677 8.265500 -8.936832 -1.004290 4.014844 4.952706 -0.373947 -12.451646 -63.617714 -14.888571 -45.851555 -116.706418 -43.503056 0.000001 0.000001 -0.000002 6.201033 -16.209058 0.741727 -0.000000 -0.000002 -3.013110 -5.000201 -7.998854 0.000157 0.329883 49.065238 -1.731028 -31.190814 121.508273 31.451566 -0.000004 -0.000006 0.000003 5.172211 10.980510 0.020189 -0.000005 -0.000007 3.000001 -5.000220 7.998713 -0.000164 -0.849011 -179.184084 -1.107601 -179.999991 0.000005 -1.005002 172.842226 -2.983608 -0.638505 0.000002 -0.000001 0.081418 69.379204 6.835879 2.242001 25.456878 -7.349491 -0.000011 0.035934 176.263004 0.963841 -0.000005 0.000011 -1.051450 -9.093628 1.394498 0.624361 -0.000001 0.000003 -0.194310 71.979402 -6.771102 -2.238305 25.697506 7.349395 -0.358304 
53.606098 -10.463011 85.607010 -0.992839 1.538649 1.444642 -1.486385 0.397851 -0.158816 1.031162 0.806938 -0.316311 2.676303 0.803093 -0.325956 8.292934 -8.902520 -0.982229 3.990042 4.950680 -0.357449 -12.325543 -63.618807 -14.742948 -45.852607 -116.695271 -43.520886 0.000001 0.000003 -0.000002 6.248568 -16.213442 0.748923 0.000000 -0.000002 -3.013110 -5.000199 -7.998854 0.000157 0.313872 49.060279 -1.711875 -31.131866 121.504298 31.396378 -0.000002 -0.000006 0.000003 5.262635 10.976176 0.013308 -0.000003 -0.000008 2.999999 -5.000219 7.998714 -0.000163 -0.925465 -179.173115 -1.108267 -179.999991 0.000005 -1.004006 172.804128 -2.983358 -0.639491 0.000003 -0.000001 0.081797 69.380672 6.835880 2.242209 25.456885 -7.349493 -0.000011 -0.037038 176.282005 0.987326 -0.000005 0.000011 -1.050810 -9.130192 1.387305 0.624829 -0.000001 0.000003 -0.194487 71.981902 -6.771183 -2.238366 25.698717 7.349392 -0.360464 
